<?xml version="1.0" encoding="UTF-8" standalone="no"?>
<!DOCTYPE svg PUBLIC "-//W3C//DTD SVG 1.1//EN" "http://www.w3.org/Graphics/SVG/1.1/DTD/svg11.dtd">
<svg width="100%" height="100%" viewBox="0 0 1080 1080" version="1.1" xmlns="http://www.w3.org/2000/svg" xmlns:xlink="http://www.w3.org/1999/xlink" xml:space="preserve" xmlns:serif="http://www.serif.com/" style="fill-rule:evenodd;clip-rule:evenodd;stroke-linejoin:round;stroke-miterlimit:2;">
    <g transform="matrix(0.954644,0,0,0.986539,-0.845067,-0.202822)">
        <rect x="-18.632" y="-15.067" width="1161.31" height="1120.1"/>
    </g>
    <g>
        <g transform="matrix(0.513829,0,0,1.55737,252.951,-192.536)">
            <g transform="matrix(560.498,0,0,184.928,284.715,514.038)">
                <path d="M0.616,-0.223C0.625,-0.223 0.632,-0.219 0.637,-0.211C0.642,-0.203 0.644,-0.192 0.644,-0.178C0.644,-0.151 0.638,-0.131 0.625,-0.116C0.598,-0.083 0.568,-0.054 0.535,-0.031C0.502,-0.007 0.47,0.005 0.438,0.005C0.387,0.005 0.349,-0.025 0.322,-0.084C0.294,-0.049 0.27,-0.025 0.249,-0.013C0.228,-0.001 0.203,0.005 0.175,0.005C0.134,0.005 0.101,-0.01 0.075,-0.041C0.048,-0.071 0.035,-0.11 0.035,-0.159C0.035,-0.212 0.046,-0.262 0.069,-0.308C0.092,-0.353 0.123,-0.391 0.163,-0.42C0.202,-0.448 0.247,-0.466 0.296,-0.471C0.309,-0.6 0.333,-0.711 0.369,-0.803C0.404,-0.894 0.451,-0.94 0.509,-0.94C0.538,-0.94 0.562,-0.927 0.581,-0.901C0.6,-0.875 0.609,-0.836 0.609,-0.783C0.609,-0.708 0.591,-0.621 0.554,-0.521C0.517,-0.421 0.468,-0.318 0.407,-0.213C0.41,-0.174 0.416,-0.147 0.425,-0.13C0.434,-0.113 0.445,-0.105 0.459,-0.105C0.477,-0.105 0.495,-0.113 0.514,-0.129C0.533,-0.145 0.558,-0.172 0.589,-0.209C0.597,-0.218 0.606,-0.223 0.616,-0.223ZM0.498,-0.842C0.485,-0.842 0.473,-0.82 0.46,-0.775C0.447,-0.729 0.436,-0.671 0.428,-0.598C0.419,-0.525 0.412,-0.449 0.408,-0.37C0.483,-0.533 0.52,-0.663 0.52,-0.762C0.52,-0.787 0.518,-0.807 0.514,-0.821C0.509,-0.835 0.504,-0.842 0.498,-0.842ZM0.21,-0.096C0.223,-0.096 0.235,-0.101 0.248,-0.112C0.261,-0.122 0.277,-0.141 0.296,-0.169C0.289,-0.205 0.286,-0.245 0.286,-0.29C0.286,-0.306 0.287,-0.332 0.288,-0.368C0.251,-0.357 0.221,-0.332 0.197,-0.295C0.172,-0.257 0.16,-0.215 0.16,-0.169C0.16,-0.12 0.177,-0.096 0.21,-0.096Z" style="fill:white;fill-rule:nonzero;"/>
            </g>
            <g transform="matrix(560.498,0,0,184.928,573.371,514.038)">
                <path d="M0.444,-0.305C0.444,-0.252 0.432,-0.203 0.408,-0.156C0.383,-0.109 0.351,-0.07 0.311,-0.041C0.27,-0.012 0.227,0.004 0.181,0.005C0.172,0.134 0.153,0.241 0.122,0.328C0.091,0.414 0.046,0.457 -0.013,0.457C-0.049,0.457 -0.076,0.444 -0.093,0.418C-0.11,0.392 -0.119,0.356 -0.119,0.31C-0.119,0.245 -0.104,0.168 -0.074,0.082C-0.044,-0.006 0.002,-0.101 0.065,-0.206C0.065,-0.303 0.064,-0.371 0.063,-0.409C0.062,-0.428 0.07,-0.444 0.086,-0.455C0.102,-0.466 0.122,-0.472 0.146,-0.472C0.16,-0.472 0.17,-0.469 0.177,-0.464C0.183,-0.458 0.186,-0.447 0.187,-0.43C0.187,-0.413 0.187,-0.401 0.188,-0.393C0.209,-0.42 0.23,-0.439 0.251,-0.451C0.272,-0.462 0.294,-0.468 0.317,-0.468C0.354,-0.468 0.385,-0.453 0.409,-0.423C0.432,-0.393 0.444,-0.354 0.444,-0.305ZM0.186,-0.091C0.21,-0.096 0.232,-0.11 0.253,-0.131C0.273,-0.152 0.289,-0.178 0.301,-0.209C0.313,-0.24 0.319,-0.272 0.319,-0.306C0.319,-0.326 0.315,-0.341 0.307,-0.352C0.299,-0.362 0.288,-0.367 0.275,-0.367C0.251,-0.367 0.222,-0.342 0.188,-0.291C0.187,-0.262 0.187,-0.219 0.187,-0.162C0.187,-0.131 0.187,-0.108 0.186,-0.091ZM-0.005,0.359C0.013,0.359 0.028,0.32 0.04,0.242C0.052,0.163 0.06,0.066 0.063,-0.051C0.034,0.016 0.012,0.079 -0.005,0.14C-0.022,0.201 -0.03,0.252 -0.03,0.293C-0.03,0.314 -0.027,0.331 -0.023,0.342C-0.017,0.353 -0.012,0.359 -0.005,0.359Z" style="fill:white;fill-rule:nonzero;"/>
            </g>
        </g>
        <rect x="520.127" y="240.681" width="41.176" height="40.237" style="fill:white;"/>
        <g transform="matrix(1,0,0,1,39.3613,39.3153)">
            <rect x="520.127" y="240.681" width="41.176" height="40.237" style="fill:white;"/>
        </g>
        <g transform="matrix(1,0,0,1,39.3613,-38.9124)">
            <rect x="520.127" y="240.681" width="41.176" height="40.237" style="fill:white;"/>
        </g>
        <g transform="matrix(0.357104,0,0,1,338.183,16.9406)">
            <g transform="matrix(100.811,0,0,36,167.154,801.233)">
                <path d="M0.06,-0.27C0.06,-0.354 0.077,-0.42 0.113,-0.467C0.148,-0.514 0.197,-0.538 0.259,-0.538C0.299,-0.538 0.334,-0.529 0.364,-0.511C0.394,-0.493 0.419,-0.467 0.438,-0.431L0.438,-0.75L0.464,-0.75L0.464,0L0.438,0L0.438,-0.084C0.42,-0.055 0.396,-0.031 0.364,-0.015C0.333,0.002 0.298,0.01 0.258,0.01C0.197,0.01 0.148,-0.014 0.113,-0.063C0.077,-0.111 0.06,-0.178 0.06,-0.263L0.06,-0.27ZM0.087,-0.259C0.087,-0.184 0.102,-0.125 0.131,-0.082C0.161,-0.038 0.203,-0.017 0.257,-0.017C0.301,-0.017 0.338,-0.026 0.369,-0.046C0.4,-0.065 0.423,-0.093 0.438,-0.131L0.438,-0.378C0.408,-0.467 0.348,-0.512 0.258,-0.512C0.204,-0.512 0.162,-0.49 0.132,-0.448C0.102,-0.405 0.087,-0.342 0.087,-0.259Z" style="fill:white;fill-rule:nonzero;"/>
            </g>
            <g transform="matrix(100.811,0,0,36,222.335,801.233)">
                <path d="M0.274,0.01C0.231,0.01 0.192,-0.002 0.156,-0.025C0.121,-0.048 0.093,-0.079 0.073,-0.119C0.053,-0.159 0.042,-0.204 0.042,-0.252L0.042,-0.274C0.042,-0.323 0.052,-0.368 0.072,-0.409C0.091,-0.449 0.118,-0.481 0.152,-0.504C0.187,-0.527 0.224,-0.538 0.264,-0.538C0.323,-0.538 0.371,-0.517 0.409,-0.475C0.446,-0.433 0.465,-0.378 0.465,-0.31L0.465,-0.282L0.069,-0.282L0.069,-0.253C0.069,-0.21 0.078,-0.17 0.096,-0.134C0.114,-0.097 0.139,-0.068 0.171,-0.047C0.202,-0.027 0.237,-0.016 0.274,-0.016C0.309,-0.016 0.34,-0.022 0.365,-0.034C0.389,-0.046 0.411,-0.064 0.431,-0.089L0.449,-0.076C0.41,-0.019 0.351,0.01 0.274,0.01ZM0.264,-0.512C0.213,-0.512 0.169,-0.493 0.133,-0.454C0.097,-0.416 0.076,-0.367 0.07,-0.308L0.438,-0.308L0.438,-0.314C0.438,-0.35 0.431,-0.384 0.416,-0.414C0.401,-0.445 0.38,-0.469 0.353,-0.486C0.327,-0.503 0.297,-0.512 0.264,-0.512Z" style="fill:white;fill-rule:nonzero;"/>
            </g>
            <g transform="matrix(100.811,0,0,36,272.494,801.233)">
                <path d="M0.239,-0.042L0.429,-0.528L0.458,-0.528L0.252,0L0.226,0L0.021,-0.528L0.049,-0.528L0.239,-0.042Z" style="fill:white;fill-rule:nonzero;"/>
            </g>
            <g transform="matrix(100.811,0,0,36,319.996,801.233)">
                <path d="M0.274,0.01C0.231,0.01 0.192,-0.002 0.156,-0.025C0.121,-0.048 0.093,-0.079 0.073,-0.119C0.053,-0.159 0.042,-0.204 0.042,-0.252L0.042,-0.274C0.042,-0.323 0.052,-0.368 0.072,-0.409C0.091,-0.449 0.118,-0.481 0.152,-0.504C0.187,-0.527 0.224,-0.538 0.264,-0.538C0.323,-0.538 0.371,-0.517 0.409,-0.475C0.446,-0.433 0.465,-0.378 0.465,-0.31L0.465,-0.282L0.069,-0.282L0.069,-0.253C0.069,-0.21 0.078,-0.17 0.096,-0.134C0.114,-0.097 0.139,-0.068 0.171,-0.047C0.202,-0.027 0.237,-0.016 0.274,-0.016C0.309,-0.016 0.34,-0.022 0.365,-0.034C0.389,-0.046 0.411,-0.064 0.431,-0.089L0.449,-0.076C0.41,-0.019 0.351,0.01 0.274,0.01ZM0.264,-0.512C0.213,-0.512 0.169,-0.493 0.133,-0.454C0.097,-0.416 0.076,-0.367 0.07,-0.308L0.438,-0.308L0.438,-0.314C0.438,-0.35 0.431,-0.384 0.416,-0.414C0.401,-0.445 0.38,-0.469 0.353,-0.486C0.327,-0.503 0.297,-0.512 0.264,-0.512Z" style="fill:white;fill-rule:nonzero;"/>
            </g>
            <g transform="matrix(100.811,0,0,36,370.795,801.233)">
                <rect x="0.09" y="-0.75" width="0.026" height="0.75" style="fill:white;fill-rule:nonzero;"/>
            </g>
            <g transform="matrix(100.811,0,0,36,391.567,801.233)">
                <path d="M0.044,-0.274C0.044,-0.325 0.054,-0.37 0.073,-0.41C0.092,-0.451 0.12,-0.482 0.155,-0.504C0.19,-0.527 0.23,-0.538 0.275,-0.538C0.319,-0.538 0.359,-0.527 0.394,-0.505C0.429,-0.484 0.457,-0.453 0.476,-0.413C0.496,-0.373 0.506,-0.327 0.506,-0.277L0.506,-0.254C0.506,-0.203 0.497,-0.158 0.478,-0.118C0.458,-0.078 0.431,-0.046 0.396,-0.024C0.36,-0.001 0.32,0.01 0.276,0.01C0.231,0.01 0.191,-0.001 0.156,-0.023C0.121,-0.046 0.093,-0.077 0.074,-0.116C0.054,-0.156 0.044,-0.201 0.044,-0.251L0.044,-0.274ZM0.07,-0.254C0.07,-0.21 0.079,-0.17 0.096,-0.133C0.114,-0.096 0.138,-0.068 0.169,-0.047C0.2,-0.027 0.236,-0.017 0.276,-0.017C0.336,-0.017 0.385,-0.039 0.423,-0.084C0.461,-0.13 0.48,-0.188 0.48,-0.259L0.48,-0.274C0.48,-0.318 0.471,-0.358 0.454,-0.395C0.436,-0.431 0.412,-0.46 0.381,-0.481C0.35,-0.501 0.314,-0.512 0.275,-0.512C0.215,-0.512 0.166,-0.489 0.127,-0.443C0.089,-0.397 0.07,-0.339 0.07,-0.27L0.07,-0.254Z" style="fill:white;fill-rule:nonzero;"/>
            </g>
            <g transform="matrix(100.811,0,0,36,447.043,801.233)">
                <path d="M0.488,-0.259C0.488,-0.177 0.47,-0.111 0.435,-0.063C0.399,-0.014 0.351,0.01 0.29,0.01C0.25,0.01 0.214,0.002 0.183,-0.015C0.151,-0.031 0.127,-0.053 0.109,-0.082L0.109,0.203L0.083,0.203L0.083,-0.528L0.109,-0.528L0.109,-0.434C0.128,-0.468 0.152,-0.493 0.183,-0.511C0.214,-0.529 0.249,-0.538 0.289,-0.538C0.35,-0.538 0.399,-0.514 0.435,-0.467C0.47,-0.42 0.488,-0.353 0.488,-0.268L0.488,-0.259ZM0.461,-0.27C0.461,-0.345 0.446,-0.405 0.416,-0.448C0.386,-0.49 0.343,-0.512 0.289,-0.512C0.245,-0.512 0.207,-0.5 0.176,-0.477C0.145,-0.454 0.123,-0.421 0.109,-0.378L0.109,-0.131C0.123,-0.095 0.145,-0.067 0.177,-0.047C0.208,-0.027 0.245,-0.017 0.29,-0.017C0.344,-0.017 0.386,-0.038 0.416,-0.081C0.446,-0.124 0.461,-0.187 0.461,-0.27Z" style="fill:white;fill-rule:nonzero;"/>
            </g>
            <g transform="matrix(100.811,0,0,36,502.223,801.233)">
                <path d="M0.274,0.01C0.231,0.01 0.192,-0.002 0.156,-0.025C0.121,-0.048 0.093,-0.079 0.073,-0.119C0.053,-0.159 0.042,-0.204 0.042,-0.252L0.042,-0.274C0.042,-0.323 0.052,-0.368 0.072,-0.409C0.091,-0.449 0.118,-0.481 0.152,-0.504C0.187,-0.527 0.224,-0.538 0.264,-0.538C0.323,-0.538 0.371,-0.517 0.409,-0.475C0.446,-0.433 0.465,-0.378 0.465,-0.31L0.465,-0.282L0.069,-0.282L0.069,-0.253C0.069,-0.21 0.078,-0.17 0.096,-0.134C0.114,-0.097 0.139,-0.068 0.171,-0.047C0.202,-0.027 0.237,-0.016 0.274,-0.016C0.309,-0.016 0.34,-0.022 0.365,-0.034C0.389,-0.046 0.411,-0.064 0.431,-0.089L0.449,-0.076C0.41,-0.019 0.351,0.01 0.274,0.01ZM0.264,-0.512C0.213,-0.512 0.169,-0.493 0.133,-0.454C0.097,-0.416 0.076,-0.367 0.07,-0.308L0.438,-0.308L0.438,-0.314C0.438,-0.35 0.431,-0.384 0.416,-0.414C0.401,-0.445 0.38,-0.469 0.353,-0.486C0.327,-0.503 0.297,-0.512 0.264,-0.512Z" style="fill:white;fill-rule:nonzero;"/>
            </g>
            <g transform="matrix(100.811,0,0,36,553.023,801.233)">
                <path d="M0.317,-0.509L0.283,-0.512C0.238,-0.512 0.2,-0.498 0.17,-0.469C0.14,-0.439 0.12,-0.399 0.11,-0.346L0.11,0L0.084,0L0.084,-0.528L0.11,-0.528L0.11,-0.418C0.125,-0.455 0.146,-0.484 0.175,-0.506C0.203,-0.527 0.239,-0.538 0.283,-0.538C0.298,-0.538 0.31,-0.536 0.32,-0.533L0.317,-0.509Z" style="fill:white;fill-rule:nonzero;"/>
            </g>
            <g transform="matrix(100.811,0,0,36,610.861,801.233)">
                <path d="M0.117,0L0.09,0L0.09,-0.528L0.117,-0.528L0.117,0ZM0.077,-0.693C0.077,-0.701 0.079,-0.707 0.084,-0.713C0.09,-0.718 0.096,-0.721 0.104,-0.721C0.111,-0.721 0.117,-0.718 0.123,-0.713C0.128,-0.707 0.131,-0.701 0.131,-0.693C0.131,-0.686 0.128,-0.68 0.123,-0.674C0.117,-0.669 0.111,-0.667 0.104,-0.667C0.096,-0.667 0.09,-0.669 0.084,-0.674C0.079,-0.68 0.077,-0.686 0.077,-0.693Z" style="fill:white;fill-rule:nonzero;"/>
            </g>
            <g transform="matrix(100.811,0,0,36,631.634,801.233)">
                <path d="M0.11,-0.405C0.128,-0.446 0.153,-0.479 0.187,-0.502C0.22,-0.526 0.257,-0.538 0.298,-0.538C0.354,-0.538 0.397,-0.522 0.424,-0.49C0.452,-0.458 0.465,-0.41 0.466,-0.345L0.466,0L0.439,0L0.439,-0.346C0.439,-0.402 0.428,-0.444 0.405,-0.471C0.382,-0.499 0.346,-0.512 0.296,-0.512C0.251,-0.512 0.211,-0.496 0.178,-0.464C0.145,-0.431 0.122,-0.389 0.11,-0.338L0.11,0L0.084,0L0.084,-0.528L0.11,-0.528L0.11,-0.405Z" style="fill:white;fill-rule:nonzero;"/>
            </g>
            <g transform="matrix(100.811,0,0,36,710.934,801.233)">
                <path d="M0.488,-0.259C0.488,-0.177 0.47,-0.111 0.435,-0.063C0.399,-0.014 0.351,0.01 0.29,0.01C0.25,0.01 0.214,0.002 0.183,-0.015C0.151,-0.031 0.127,-0.053 0.109,-0.082L0.109,0.203L0.083,0.203L0.083,-0.528L0.109,-0.528L0.109,-0.434C0.128,-0.468 0.152,-0.493 0.183,-0.511C0.214,-0.529 0.249,-0.538 0.289,-0.538C0.35,-0.538 0.399,-0.514 0.435,-0.467C0.47,-0.42 0.488,-0.353 0.488,-0.268L0.488,-0.259ZM0.461,-0.27C0.461,-0.345 0.446,-0.405 0.416,-0.448C0.386,-0.49 0.343,-0.512 0.289,-0.512C0.245,-0.512 0.207,-0.5 0.176,-0.477C0.145,-0.454 0.123,-0.421 0.109,-0.378L0.109,-0.131C0.123,-0.095 0.145,-0.067 0.177,-0.047C0.208,-0.027 0.245,-0.017 0.29,-0.017C0.344,-0.017 0.386,-0.038 0.416,-0.081C0.446,-0.124 0.461,-0.187 0.461,-0.27Z" style="fill:white;fill-rule:nonzero;"/>
            </g>
            <g transform="matrix(100.811,0,0,36,766.114,801.233)">
                <path d="M0.117,0L0.09,0L0.09,-0.528L0.117,-0.528L0.117,0ZM0.077,-0.693C0.077,-0.701 0.079,-0.707 0.084,-0.713C0.09,-0.718 0.096,-0.721 0.104,-0.721C0.111,-0.721 0.117,-0.718 0.123,-0.713C0.128,-0.707 0.131,-0.701 0.131,-0.693C0.131,-0.686 0.128,-0.68 0.123,-0.674C0.117,-0.669 0.111,-0.667 0.104,-0.667C0.096,-0.667 0.09,-0.669 0.084,-0.674C0.079,-0.68 0.077,-0.686 0.077,-0.693Z" style="fill:white;fill-rule:nonzero;"/>
            </g>
            <g transform="matrix(100.811,0,0,36,786.887,801.233)">
                <path d="M0.239,-0.294L0.407,-0.528L0.44,-0.528L0.255,-0.271L0.45,0L0.417,0L0.238,-0.248L0.06,0L0.027,0L0.222,-0.271L0.037,-0.528L0.07,-0.528L0.239,-0.294Z" style="fill:white;fill-rule:nonzero;"/>
            </g>
            <g transform="matrix(100.811,0,0,36,834.043,801.233)">
                <path d="M0.274,0.01C0.231,0.01 0.192,-0.002 0.156,-0.025C0.121,-0.048 0.093,-0.079 0.073,-0.119C0.053,-0.159 0.042,-0.204 0.042,-0.252L0.042,-0.274C0.042,-0.323 0.052,-0.368 0.072,-0.409C0.091,-0.449 0.118,-0.481 0.152,-0.504C0.187,-0.527 0.224,-0.538 0.264,-0.538C0.323,-0.538 0.371,-0.517 0.409,-0.475C0.446,-0.433 0.465,-0.378 0.465,-0.31L0.465,-0.282L0.069,-0.282L0.069,-0.253C0.069,-0.21 0.078,-0.17 0.096,-0.134C0.114,-0.097 0.139,-0.068 0.171,-0.047C0.202,-0.027 0.237,-0.016 0.274,-0.016C0.309,-0.016 0.34,-0.022 0.365,-0.034C0.389,-0.046 0.411,-0.064 0.431,-0.089L0.449,-0.076C0.41,-0.019 0.351,0.01 0.274,0.01ZM0.264,-0.512C0.213,-0.512 0.169,-0.493 0.133,-0.454C0.097,-0.416 0.076,-0.367 0.07,-0.308L0.438,-0.308L0.438,-0.314C0.438,-0.35 0.431,-0.384 0.416,-0.414C0.401,-0.445 0.38,-0.469 0.353,-0.486C0.327,-0.503 0.297,-0.512 0.264,-0.512Z" style="fill:white;fill-rule:nonzero;"/>
            </g>
            <g transform="matrix(100.811,0,0,36,884.843,801.233)">
                <rect x="0.09" y="-0.75" width="0.026" height="0.75" style="fill:white;fill-rule:nonzero;"/>
            </g>
            <g transform="matrix(100.811,0,0,36,905.615,801.233)">
                <path d="M0.41,-0.129C0.41,-0.194 0.355,-0.237 0.246,-0.26C0.18,-0.274 0.134,-0.292 0.108,-0.314C0.083,-0.336 0.07,-0.366 0.07,-0.405C0.07,-0.444 0.086,-0.475 0.119,-0.5C0.152,-0.526 0.194,-0.538 0.247,-0.538C0.304,-0.538 0.349,-0.524 0.384,-0.497C0.418,-0.47 0.436,-0.433 0.436,-0.387L0.409,-0.387C0.409,-0.423 0.394,-0.452 0.364,-0.476C0.334,-0.5 0.295,-0.512 0.247,-0.512C0.2,-0.512 0.164,-0.502 0.137,-0.481C0.11,-0.461 0.096,-0.436 0.096,-0.406C0.096,-0.382 0.101,-0.363 0.111,-0.35C0.121,-0.336 0.138,-0.324 0.161,-0.313C0.183,-0.302 0.217,-0.292 0.26,-0.282C0.304,-0.272 0.338,-0.26 0.364,-0.246C0.389,-0.232 0.408,-0.216 0.419,-0.198C0.43,-0.179 0.436,-0.156 0.436,-0.129C0.436,-0.087 0.419,-0.054 0.385,-0.028C0.351,-0.003 0.306,0.01 0.25,0.01C0.191,0.01 0.143,-0.004 0.107,-0.031C0.071,-0.057 0.053,-0.092 0.053,-0.134L0.079,-0.134C0.082,-0.097 0.098,-0.068 0.128,-0.048C0.158,-0.027 0.199,-0.017 0.25,-0.017C0.298,-0.017 0.336,-0.028 0.365,-0.05C0.395,-0.072 0.41,-0.098 0.41,-0.129Z" style="fill:white;fill-rule:nonzero;"/>
            </g>
        </g>
    </g>
</svg>
